{"title":"Jessa Rhodes - Doctors Orders","uid":11146323,"size":572314106,"categoryP":"porn","categoryS":"movies","magnet":"?xt=urn:btih:0cd25a02df8facf7bbc913950c8a8e9efc90ff0a&amp;dn=Jessa+Rhodes+-+Doctors+Orders&amp;tr=udp%3A%2F%2Ftracker.openbittorrent.com%3A80&amp;tr=udp%3A%2F%2Fopen.demonii.com%3A1337&amp;tr=udp%3A%2F%2Ftracker.coppersurfer.tk%3A6969&amp;tr=udp%3A%2F%2Fexodus.desync.com%3A6969","seeders":2,"leechers":1,"uploader":"DavidL0ng","files":-1,"time":1412266295,"description":"screens;\n &lt;a href=&quot;\nhttp://bayimg.com/iAACeaaGM&quot; rel=&quot;nofollow&quot; target=&quot;_NEW&quot;&gt;\nhttp://bayimg.com/iAACeaaGM&lt;/a&gt;\n\nVideo\nID                                       : 0\nFormat                                   : MPEG-4 Visual\nFormat profile                           : Simple@L1\nFormat settings, BVOP                    : No\nFormat settings, QPel                    : No\nFormat settings, GMC                     : No warppoints\nFormat settings, Matrix                  : Default (H.263)\nCodec ID                                 : DX50\nCodec ID/Hint                            : DivX 5\nDuration                                 : 24mn 55s\nBit rate                                 : 2 793 Kbps\nWidth                                    : 720 pixels\nHeight                                   : 394 pixels\nDisplay aspect ratio                     : 1.85:1\nFrame rate                               : 29.970 fps\nColor space                              : YUV\nChroma subsampling                       : 4:2:0\nBit depth                                : 8 bits\nScan type                                : Interlaced\nScan order                               : Top Field First\nCompression mode                         : Lossy\nBits/(Pixel*Frame)                       : 0.329\nStream size                              : 498 MiB (91%)\nWriting library                          : Lavc52.72.2\n\nAudio\nID                                       : 1\nFormat                                   : MPEG Audio\nFormat version                           : Version 1\nFormat profile                           : Layer 3\nMode                                     : Joint stereo\nMode extension                           : MS Stereo\nCodec ID                                 : 55\nCodec ID/Hint                            : MP3\nDuration                                 : 24mn 55s\nBit rate mode                            : Constant\nBit rate                                 : 256 Kbps\nChannel(s)                               : 2 channels\nSampling rate                            : 44.1 KHz\nCompression mode                         : Lossy\nStream size                              : 45.6 MiB (8%)\nAlignment                                : Aligned on interleaves\nInterleave, duration                     : 26 ms (0.78 video frame)\nInterleave, preload duration             : 809 ms","torrent":{"xt":"urn:btih:0cd25a02df8facf7bbc913950c8a8e9efc90ff0a","amp;dn":"Jessa+Rhodes+-+Doctors+Orders","amp;tr":["udp%3A%2F%2Ftracker.openbittorrent.com%3A80","udp%3A%2F%2Fopen.demonii.com%3A1337","udp%3A%2F%2Ftracker.coppersurfer.tk%3A6969","udp%3A%2F%2Fexodus.desync.com%3A6969"],"infoHash":"0cd25a02df8facf7bbc913950c8a8e9efc90ff0a","infoHashBuffer":{"type":"Buffer","data":[12,210,90,2,223,143,172,247,187,201,19,149,12,138,142,158,252,144,255,10]},"announce":[],"urlList":[]}}